<?xml version="1.0" encoding="utf-8"?>
<!-- Generator: Adobe Illustrator 25.0.0, SVG Export Plug-In . SVG Version: 6.00 Build 0)  -->
<svg version="1.1" id="Layer_1" xmlns="http://www.w3.org/2000/svg" xmlns:xlink="http://www.w3.org/1999/xlink" x="0px" y="0px"
	 viewBox="0 0 14 26" style="enable-background:new 0 0 14 26;" xml:space="preserve">
<style type="text/css">
	.st0{fill:#0049FF;}
</style>
<path class="st0" d="M1.51,13.76h2.55v10.48c0,0.21,0.17,0.37,0.37,0.37h4.32c0.21,0,0.37-0.17,0.37-0.37V13.81h2.93
	c0.19,0,0.35-0.14,0.37-0.33l0.44-3.86c0.01-0.11-0.02-0.21-0.09-0.29C12.7,9.24,12.6,9.2,12.49,9.2H9.12V6.78
	c0-0.73,0.39-1.1,1.17-1.1c0.11,0,2.2,0,2.2,0c0.21,0,0.37-0.17,0.37-0.37V1.76c0-0.21-0.17-0.37-0.37-0.37H9.45
	c-0.02,0-0.07,0-0.14,0c-0.53,0-2.36,0.1-3.81,1.43C3.9,4.3,4.13,6.06,4.18,6.37V9.2H1.51c-0.21,0-0.37,0.17-0.37,0.37v3.81
	C1.13,13.59,1.3,13.76,1.51,13.76z"/>
</svg>
