<?xml version="1.0" encoding="utf-8"?>
<!-- Generator: Adobe Illustrator 25.0.0, SVG Export Plug-In . SVG Version: 6.00 Build 0)  -->
<svg version="1.1" id="Layer_1" xmlns="http://www.w3.org/2000/svg" xmlns:xlink="http://www.w3.org/1999/xlink" x="0px" y="0px"
	 viewBox="0 0 26 26" style="enable-background:new 0 0 26 26;" xml:space="preserve">
<style type="text/css">
	.st0{fill:#0049FF;}
</style>
<g>
	<path class="st0" d="M17.65,1.49h-9.3c-3.78,0-6.85,3.08-6.85,6.85v9.3c0,3.78,3.08,6.85,6.85,6.85h9.3c3.78,0,6.85-3.08,6.85-6.85
		v-9.3C24.51,4.57,21.43,1.49,17.65,1.49z M22.19,17.65c0,2.51-2.03,4.54-4.54,4.54h-9.3c-2.51,0-4.54-2.03-4.54-4.54v-9.3
		c0-2.51,2.03-4.54,4.54-4.54h9.3c2.51,0,4.54,2.03,4.54,4.54L22.19,17.65L22.19,17.65z"/>
	<path class="st0" d="M13,7.05c-3.28,0-5.95,2.67-5.95,5.95s2.67,5.95,5.95,5.95s5.95-2.67,5.95-5.95S16.28,7.05,13,7.05z M13,16.64
		c-2.01,0-3.64-1.63-3.64-3.64S10.99,9.36,13,9.36c2.01,0,3.64,1.63,3.64,3.64C16.64,15.01,15.01,16.64,13,16.64z"/>
	<circle class="st0" cx="18.96" cy="7.09" r="1.43"/>
</g>
</svg>
