<?xml version="1.0" encoding="utf-8"?>
<!-- Generator: Adobe Illustrator 25.0.0, SVG Export Plug-In . SVG Version: 6.00 Build 0)  -->
<svg version="1.1" id="Layer_1" xmlns="http://www.w3.org/2000/svg" xmlns:xlink="http://www.w3.org/1999/xlink" x="0px" y="0px"
	 viewBox="0 0 26 26" style="enable-background:new 0 0 26 26;" xml:space="preserve">
<style type="text/css">
	.st0{fill:#0049FF;}
</style>
<path class="st0" d="M7.3,23.44c0,0.42-0.34,0.76-0.76,0.76H3.33c-0.42,0-0.76-0.34-0.76-0.76V9.95c0-0.42,0.34-0.76,0.76-0.76h3.22
	c0.42,0,0.76,0.34,0.76,0.76V23.44z M4.94,7.92c-1.69,0-3.06-1.37-3.06-3.06s1.37-3.06,3.06-3.06S8,3.18,8,4.86S6.63,7.92,4.94,7.92
	z M24.12,23.5c0,0.38-0.31,0.69-0.69,0.69h-3.45c-0.38,0-0.69-0.31-0.69-0.69v-6.33c0-0.94,0.28-4.14-2.47-4.14
	c-2.13,0-2.56,2.18-2.65,3.17v7.3c0,0.38-0.31,0.69-0.69,0.69h-3.34c-0.38,0-0.69-0.31-0.69-0.69V9.89c0-0.38,0.31-0.69,0.69-0.69
	h3.34c0.38,0,0.69,0.31,0.69,0.69v1.18c0.79-1.18,1.96-2.1,4.46-2.1c5.53,0,5.5,5.17,5.5,8L24.12,23.5L24.12,23.5z"/>
</svg>
