<?xml version="1.0" encoding="utf-8"?>
<!-- Generator: Adobe Illustrator 25.0.0, SVG Export Plug-In . SVG Version: 6.00 Build 0)  -->
<svg version="1.1" id="Layer_1" xmlns="http://www.w3.org/2000/svg" xmlns:xlink="http://www.w3.org/1999/xlink" x="0px" y="0px"
	 viewBox="0 0 216 48" style="enable-background:new 0 0 216 48;" xml:space="preserve">
<style type="text/css">
	.st0{fill:#0049FF;}
	.st1{fill:#0068FF;}
	.st2{fill:#0074FF;}
	.st3{fill:#008CFF;}
	.st4{fill:#005CFF;}
	.st5{fill:#C4C4C4;}
</style>
<g>
	<g>
		<circle class="st0" cx="205.01" cy="2.56" r="1.32"/>
		<circle class="st1" cx="209.52" cy="7.07" r="1.09"/>
		<circle class="st2" cx="211.78" cy="9.32" r="0.96"/>
		<circle class="st2" cx="214.03" cy="11.57" r="0.86"/>
		<circle class="st3" cx="211.8" cy="13.51" r="0.75"/>
		<circle class="st1" cx="200.52" cy="7.07" r="1.09"/>
		<circle class="st2" cx="198.26" cy="9.32" r="0.96"/>
		<circle class="st2" cx="196" cy="11.57" r="0.86"/>
		<circle class="st0" cx="200.52" cy="11.57" r="0.05"/>
		<circle class="st3" cx="198.26" cy="13.51" r="0.75"/>
		<circle class="st4" cx="207.29" cy="4.81" r="1.2"/>
		<circle class="st2" cx="207.29" cy="9.32" r="0.96"/>
		<circle class="st2" cx="209.54" cy="11.57" r="0.86"/>
		<circle class="st4" cx="202.8" cy="4.81" r="1.2"/>
		<circle class="st1" cx="205.03" cy="7.07" r="1.09"/>
		<circle class="st2" cx="202.77" cy="9.32" r="0.96"/>
		<circle class="st2" cx="200.52" cy="11.57" r="0.86"/>
	</g>
	<g>
		<path class="st5" d="M21.44,17.48H19.4l-0.83,0.83v10.25c0,4.55-3.03,7.42-7.3,7.42c-4.43,0-6.48-2.71-6.48-6.81V18.31l-0.82-0.82
			H1.93L1.1,18.31v11.27c0,5.82,3.32,9.8,9.23,9.8c4.1,0,6.72-1.93,8.24-4.14v2.86l0.83,0.83h2.04l0.83-0.83V18.31L21.44,17.48z"/>
		<path class="st5" d="M38.55,17.07c-4.26,0-7.42,1.89-9.02,4.18v-2.95l-0.82-0.82h-2.04l-0.83,0.83v27.17l0.83,0.83h2.04l0.82-0.82
			V35.16c1.6,2.34,4.76,4.22,9.02,4.22c7.22,0,11.73-4.96,11.73-11.15C50.28,21.99,45.76,17.07,38.55,17.07z M38.1,36.22
			c-4.51,0-8.73-2.99-8.73-7.87v-0.29c0-4.84,4.22-7.87,8.73-7.87c4.8,0,8.65,3.03,8.65,8.04C46.75,33.19,42.89,36.22,38.1,36.22z"
			/>
		<g>
			<polygon class="st5" points="56.65,38.76 56.65,38.76 56.65,38.76 			"/>
			<path class="st5" d="M77.03,17.48h-2.05l-0.82,0.82v2.87c-1.64-2.21-4.63-4.1-8.94-4.1c-7.26,0-11.77,4.84-11.77,10.82
				c0,6.03,4.51,10.91,11.77,10.91c4.31,0,7.3-1.89,8.94-4.14v1.8c0,4.67-3.85,7.22-8.86,7.22c-3.69,0-6.91-1.52-8.34-4.25
				l-1.01-0.23l-1.68,1.06l-0.26,1.12c1.86,3.37,6.04,5.38,11.37,5.38c7.18,0,12.46-4.1,12.46-10.58V18.3L77.03,17.48z M74.32,27.98
				c0,4.96-4.35,7.67-8.69,7.67c-4.84,0-8.61-2.99-8.61-7.75c0-4.72,3.77-7.75,8.61-7.75c4.35,0,8.69,2.75,8.69,7.67V27.98z"/>
		</g>
		<g>
			<path class="st5" d="M108.7,17.07c-4.65,0-8.83,2.02-10.49,5.2l0.41,1.09l1.59,0.72l1.09-0.41l0,0c1.19-2.08,4.02-3.44,7.31-3.44
				c4.18,0,6.4,1.8,6.4,4.51v0.53l-9.47,1.07c-5.04,0.57-8.49,2.62-8.49,6.6c0,4.22,3.81,6.44,8.61,6.44c3.87,0,7.36-1.31,9.35-3.56
				v2.28l0.83,0.83h1.91l0.82-0.82l0.01-13.32C118.58,19.82,114.89,17.07,108.7,17.07z M115.01,30.36c0,4.02-4.84,5.99-9.06,5.99
				c-3.2,0-5.29-1.23-5.29-3.44c0-2.46,2.21-3.28,5.41-3.65l8.94-1.03V30.36z"/>
		</g>
		<g>
			<path class="st5" d="M161.42,17.07c-4.65,0-8.83,2.02-10.49,5.2l0.41,1.09l1.59,0.72l1.09-0.41l0,0
				c1.19-2.08,4.02-3.44,7.31-3.44c4.18,0,6.4,1.8,6.4,4.51v0.53l-9.47,1.07c-5.04,0.57-8.49,2.62-8.49,6.6
				c0,4.22,3.81,6.44,8.61,6.44c3.87,0,7.36-1.31,9.35-3.56v2.28l0.83,0.83h1.91l0.82-0.82l0.01-13.32
				C171.3,19.82,167.61,17.07,161.42,17.07z M167.73,30.36c0,4.02-4.84,5.99-9.06,5.99c-3.2,0-5.29-1.23-5.29-3.44
				c0-2.46,2.21-3.28,5.41-3.65l8.94-1.03V30.36z"/>
		</g>
		<path class="st5" d="M143.33,9.49l-0.82,0.82v10.94c-1.6-2.3-4.76-4.18-9.02-4.18c-7.22,0-11.73,4.92-11.73,11.15
			c0,6.19,4.51,11.15,11.73,11.15c4.26,0,7.42-1.89,9.02-4.22v2.95l0.82,0.82h2.04l0.83-0.83V10.31l-0.83-0.83H143.33z
			 M142.67,28.35c0,4.88-4.22,7.87-8.73,7.87c-4.8,0-8.65-3.03-8.65-8c0-5,3.85-8.04,8.65-8.04c4.51,0,8.73,3.03,8.73,7.87V28.35z"
			/>
		<polygon class="st5" points="94.99,17.48 82.25,17.48 81.43,18.3 81.43,38.1 82.25,38.93 84.3,38.93 85.12,38.11 85.12,21.17 
			94.99,21.17 95.82,20.35 95.82,18.31 		"/>
		<polygon class="st5" points="188.49,17.48 175.74,17.48 174.92,18.3 174.92,38.1 175.75,38.93 177.79,38.93 178.61,38.11 
			178.61,21.17 188.49,21.17 189.31,20.35 189.31,18.31 		"/>
	</g>
</g>
</svg>
