<?xml version="1.0" encoding="utf-8"?>
<!-- Generator: Adobe Illustrator 25.0.0, SVG Export Plug-In . SVG Version: 6.00 Build 0)  -->
<svg version="1.1" id="Layer_1" xmlns="http://www.w3.org/2000/svg" xmlns:xlink="http://www.w3.org/1999/xlink" x="0px" y="0px"
	 viewBox="0 0 24 30" style="enable-background:new 0 0 24 30;" xml:space="preserve">
<style type="text/css">
	.st0{fill:#0049FF;}
</style>
<path class="st0" d="M6.17,28.54c-0.44-0.39-0.55-2.34-0.55-2.34c-0.04-1.04-0.01-2.14,0.2-3.03c0.2-0.88,1-4.27,1.53-6.49
	c0.26-1.08,0.29-2.21,0.08-3.3c-0.07-0.36-0.12-0.78-0.12-1.25c0-2.38,1.38-4.16,3.1-4.16c1.46,0,2.17,1.1,2.17,2.41
	c0,1.47-0.93,3.66-1.42,5.7c-0.4,1.7,0.85,3.09,2.53,3.09c3.04,0,5.38-3.21,5.38-7.84c0-4.1-2.94-6.96-7.15-6.96
	c-4.87,0-7.73,3.65-7.73,7.43c0,1.47,0.57,3.05,1.27,3.91c0.14,0.17,0.16,0.32,0.12,0.49c-0.13,0.54-0.42,1.7-0.48,1.94
	c-0.07,0.31-0.25,0.38-0.57,0.23c-2.14-0.99-3.47-4.12-3.47-6.63c0-5.4,3.92-10.36,11.31-10.36c5.94,0,10.55,4.23,10.55,9.88
	c0,5.9-3.72,10.64-8.88,10.64c-1.36,0-2.66-0.56-3.43-1.31c-0.23-0.23-0.63-0.13-0.72,0.19c-0.27,1.03-0.7,2.68-0.84,3.22
	c-0.25,0.97-0.78,2.1-1.32,3.08C7.35,27.85,6.62,28.93,6.17,28.54z"/>
</svg>
