<?xml version="1.0" encoding="utf-8"?>
<!-- Generator: Adobe Illustrator 25.0.0, SVG Export Plug-In . SVG Version: 6.00 Build 0)  -->
<svg version="1.1" id="Layer_1" xmlns="http://www.w3.org/2000/svg" xmlns:xlink="http://www.w3.org/1999/xlink" x="0px" y="0px"
	 viewBox="0 0 28 26" style="enable-background:new 0 0 28 26;" xml:space="preserve">
<style type="text/css">
	.st0{fill:#0049FF;}
</style>
<path class="st0" d="M26.94,4.47c-0.59,0.26-1.21,0.47-1.84,0.62c0.7-0.66,1.22-1.49,1.52-2.42l0,0c0.08-0.26-0.2-0.49-0.44-0.35
	l0,0c-0.88,0.52-1.83,0.91-2.82,1.16c-0.06,0.01-0.12,0.02-0.18,0.02c-0.18,0-0.36-0.07-0.49-0.19c-1.05-0.93-2.41-1.44-3.81-1.44
	c-0.61,0-1.22,0.09-1.83,0.28c-1.87,0.58-3.31,2.12-3.76,4.02c-0.17,0.71-0.22,1.43-0.14,2.12c0.01,0.08-0.03,0.14-0.05,0.16
	c-0.04,0.05-0.1,0.07-0.16,0.07c-0.01,0-0.01,0-0.02,0C8.82,8.16,5.14,6.19,2.53,2.99l0,0C2.39,2.83,2.14,2.85,2.03,3.03l0,0
	c-0.51,0.88-0.78,1.88-0.78,2.9c0,1.56,0.63,3.04,1.72,4.11c-0.46-0.11-0.9-0.28-1.31-0.51l0,0c-0.2-0.11-0.44,0.03-0.45,0.26l0,0
	c-0.03,2.32,1.33,4.39,3.37,5.32c-0.04,0-0.08,0-0.12,0c-0.32,0-0.65-0.03-0.97-0.09l0,0c-0.22-0.04-0.41,0.17-0.34,0.39l0,0
	c0.66,2.06,2.44,3.58,4.56,3.93c-1.76,1.18-3.82,1.81-5.96,1.81l-0.67,0c-0.21,0-0.38,0.13-0.43,0.33c-0.05,0.2,0.04,0.4,0.22,0.5
	c2.41,1.4,5.16,2.14,7.95,2.14c2.44,0,4.73-0.48,6.79-1.44c1.89-0.88,3.57-2.13,4.97-3.73c1.31-1.49,2.33-3.2,3.04-5.1
	c0.68-1.81,1.03-3.74,1.03-5.58V8.19c0-0.3,0.13-0.57,0.37-0.76c0.89-0.72,1.66-1.57,2.29-2.52l0,0
	C27.48,4.66,27.22,4.34,26.94,4.47L26.94,4.47z"/>
</svg>
